<?xml version="1.0" encoding="UTF-8" standalone="no"?><!-- Generator: Gravit.io --><svg xmlns="http://www.w3.org/2000/svg" xmlns:xlink="http://www.w3.org/1999/xlink" style="isolation:isolate" viewBox="588.5 264.5 284 408.5" width="284pt" height="408.5pt"><defs><clipPath id="_clipPath_s5nvSWtmhLzV6UUExRVS8wuKvopCB7QU"><rect x="588.5" y="264.5" width="284" height="408.5"/></clipPath></defs><g clip-path="url(#_clipPath_s5nvSWtmhLzV6UUExRVS8wuKvopCB7QU)"><linearGradient id="_lgradient_4" x1="0.7956631079478055" y1="0.832596405228758" x2="0.3739311981020164" y2="-0.061880718954248515" gradientTransform="matrix(281,0,0,408,590,265)" gradientUnits="userSpaceOnUse"><stop offset="1.25%" stop-opacity="1" style="stop-color:rgb(126,0,168)"/><stop offset="52.916666666666664%" stop-opacity="1" style="stop-color:rgb(0,0,0)"/><stop offset="95%" stop-opacity="1" style="stop-color:rgb(119,0,159)"/></linearGradient><path d=" M 871 280 L 871 555.475 C 871 569.273 861.323 586.118 849.404 593.069 L 809.103 616.571 C 781.45 632.697 746.454 657.982 731 673 L 731 673 L 731 673 C 716.3 657.982 681.797 632.9 654 617.025 L 611.709 592.873 C 599.728 586.03 590 569.273 590 555.475 L 590 280 C 590 271.721 596.721 265 605 265 L 856 265 C 864.279 265 871 271.721 871 280 Z " fill="url(#_lgradient_4)"/><radialGradient id="_rgradient_2" fx="0.5021186786496616" fy="0.8665297741273115" cx="0.5" cy="0.5" r="0.5" gradientTransform="matrix(664.365,0,-3.169,517.205,399.902,207.898)" gradientUnits="userSpaceOnUse"><stop offset="53.558052434456904%" stop-opacity="1" style="stop-color:rgb(116,0,179)"/><stop offset="100%" stop-opacity="1" style="stop-color:rgb(179,0,255)"/></radialGradient><path d=" M 862 279.155 L 862 355.004 L 862 547.711 C 862 560.644 852.936 576.446 841.773 582.975 L 804.102 605.008 C 778.202 620.157 745.432 643.902 730.968 658 L 730.968 658 L 730.968 658 C 717.209 643.902 684.901 620.348 658.864 605.435 L 619.334 582.792 C 608.111 576.363 599 560.644 599 547.711 L 599 279.155 C 599 276.862 600.862 275 603.155 275 L 857.845 275 C 860.138 275 862 276.862 862 279.155 Z " fill="url(#_rgradient_2)" fill-opacity="0.99" stroke-width="7" stroke="rgb(209,255,25)" stroke-linejoin="miter" stroke-linecap="square" stroke-miterlimit="3"/><linearGradient id="_lgradient_5" x1="1.338205388917133" y1="0.3291097744597554" x2="-0.23271479410269458" y2="0.8411895897551495" gradientTransform="matrix(281,0,0,408,590,265)" gradientUnits="userSpaceOnUse"><stop offset="2.5%" stop-opacity="0" style="stop-color:rgb(126,0,168)"/><stop offset="59.166666666666664%" stop-opacity="0.74" style="stop-color:rgb(255,255,255)"/><stop offset="95.83333333333334%" stop-opacity="0" style="stop-color:rgb(119,0,159)"/></linearGradient><path d=" M 871 280 L 871 555.475 C 871 569.273 861.323 586.118 849.404 593.069 L 809.103 616.571 C 781.45 632.697 746.454 657.982 731 673 L 731 673 L 731 673 C 716.3 657.982 681.797 632.9 654 617.025 L 611.709 592.873 C 599.728 586.03 590 569.273 590 555.475 L 590 280 C 590 271.721 596.721 265 605 265 L 856 265 C 864.279 265 871 271.721 871 280 Z " fill="url(#_lgradient_5)" style="mix-blend-mode:overlay;"/></g></svg>